<svg id="Layer_1" data-name="Layer 1" xmlns="http://www.w3.org/2000/svg" viewBox="0 0 4781.71 500"><defs><style>.cls-1{fill:#fff;}</style></defs><path class="cls-1" d="M68.18,493.51v-7.8c45.46-16.88,58.44-39.61,58.44-74.67V91.56c0-30.52-7.14-42.86-29.22-42.86-24,0-53.89,16.24-89.61,99.35H0L19.48,6.49H292.21l19.48,141.56H303.9C274,64.94,238.31,48.7,214.29,48.7c-21.43,0-29.23,12.34-29.23,42.86V411c0,35.06,13,57.79,58.45,74.67v7.8Z"/><path class="cls-1" d="M350.65,493.51v-7.8c36.36-13,45.45-36.36,45.45-68.18V82.47c0-31.82-9.09-55.2-45.45-68.18V6.49H500v7.8c-36.36,13-45.45,36.36-45.45,68.18V202.6H603.9V82.47c0-31.82-9.09-55.2-45.46-68.18V6.49H707.79v7.8c-36.36,13-45.45,36.36-45.45,68.18V417.53c0,31.82,9.09,55.2,45.45,68.18v7.8H558.44v-7.8c36.37-13,45.46-36.36,45.46-68.18V248.05H454.55V417.53c0,31.82,9.09,55.2,45.45,68.18v7.8Z"/><path class="cls-1" d="M811.68,82.47c0-31.82-9.09-55.2-45.45-68.18V6.49h263V135.06h-7.8C996.1,64.29,979.22,48.7,937,48.7H915.58c-33.77,0-45.46,11.69-45.46,39.61V214.94c66.24-.65,77.28-11,94.81-57.8h7.79V311.69h-7.79c-17.53-47.4-29.22-57.79-94.81-57.79V448.05h47.41c68.83,0,86.36-12.34,123.37-115.58h7.8l-19.48,161h-263v-7.8c36.36-13,45.45-36.36,45.45-68.18Z"/><path class="cls-1" d="M1386.35,392.86V82.47c0-31.82-11-53.25-51.95-68.18V6.49h155.85v7.8c-36.37,13-45.46,36.36-45.46,68.18V399.35c0,63-40.91,100.65-104.54,100.65-26.63,0-60.39-7.79-79.88-16.88L1243.49,339h7.79c33.12,84.42,57.15,115.59,92.86,115.59C1368.82,454.55,1386.35,439.61,1386.35,392.86Z"/><path class="cls-1" d="M1769.46,6.49v7.8c36.36,13,45.45,36.36,45.45,68.18V363.64h0c0,52.59-29.87,84.41-83.77,84.41-61.69,0-85.07-39-85.07-84.41h0V82.47c0-31.82,9.1-55.2,45.46-68.18V6.49H1542.19v7.8c36.36,13,45.45,36.36,45.45,68.18V363.64h0c0,71.43,41.56,136.36,137,136.36,74.67,0,129.22-51.3,129.22-136.36V82.47c0-31.82,9.09-55.2,45.45-68.18V6.49Z"/><path class="cls-1" d="M1963.68,147.4C1963.68,65.58,2023.42,0,2098.1,0h155.19V35.71h-66.88C2215,63,2233.16,102.6,2233.16,147.4c0,80.52-61,146.76-135.06,146.76S1963.68,227.92,1963.68,147.4Zm398.57,186.37c0,89.61,31.17,124,69.48,124s70.13-34.41,70.13-124h64.94c0,90.91-61,166.23-135.07,166.23-62.33,0-114.93-53.25-129.87-124h-73.24c-15.58,70.78-68.18,124-130.52,124-74,0-134.42-75.32-134.42-166.23h64.94c0,89.61,31.17,124,69.48,124s70.13-34.41,70.13-124Zm-194-186.37c0-76-31.82-111.69-70.13-111.69s-69.48,37-69.48,111.69,31.17,111,69.48,111S2168.23,222.08,2168.23,147.4Zm129.09,0c0-81.82,59.74-147.4,134.41-147.4h155.2V35.71h-66.88C2548.62,63,2566.8,102.6,2566.8,147.4c0,80.52-61,146.76-135.07,146.76S2297.32,227.92,2297.32,147.4Zm204.54,0c0-76-31.81-111.69-70.13-111.69s-69.48,37-69.48,111.69,31.17,111,69.48,111S2501.86,222.08,2501.86,147.4Z"/><path class="cls-1" d="M2697.31,82.47c0-31.82-9.09-55.2-45.45-68.18V6.49h263V135.06h-7.8c-25.32-70.77-42.2-86.36-84.41-86.36h-21.43c-33.77,0-45.45,11.69-45.45,39.61V214.94c66.23-.65,77.27-11,94.8-57.8h7.79V311.69h-7.79c-17.53-47.4-29.22-57.79-94.8-57.79V448.05h47.4c68.83,0,86.36-12.34,123.37-115.58h7.8l-19.48,161h-263v-7.8c36.36-13,45.45-36.36,45.45-68.18Z"/><path class="cls-1" d="M2986.27,493.51v-7.8c36.36-13,45.45-36.36,45.45-68.18V82.47c0-31.82-9.09-55.2-45.45-68.18V6.49h140.25c85.72,0,155.2,44.81,155.2,126.63,0,69.48-53.9,105.84-123.38,112.33L3244.06,424c18.18,37.66,36.36,53.24,63.63,61v8.45H3209l-118.83-263v187c0,31.82,9.09,55.2,45.46,68.18v7.8ZM3135.62,48.7c-33.77,0-45.46,14.29-45.46,49.35V207.79H3133c38.31,0,83.76-20.78,83.76-74.67C3216.78,72.73,3179.12,48.7,3135.62,48.7Z"/><path class="cls-1" d="M3333.67,493.51v-7.8c36.37-13,45.46-36.36,45.46-68.18V59.09c-13.64-20.13-31.82-37.66-45.46-51.3V6.49h90.91L3555.75,237l46.1,92.86L3599.91,252V82.47c0-31.82-11-53.25-51.95-68.18V6.49h142.86v7.8c-36.37,13-45.46,36.36-45.46,68.18v411h-13L3477.83,221.43l-55.2-103.25,1.95,87V417.53c0,31.82,11,53.25,52,68.18v7.8Z"/><path class="cls-1" d="M3935.62,322.08h-107.8L3797.3,429.87c-9.74,34.42,12.34,42.86,51.3,55.84v7.8H3694.06v-7.8c36.36-12.33,44.15-28.57,53.24-57.79L3856.4,64.29c-13.64-30.52-32.47-37.67-64.94-50V6.49h110.39l137,426.63c7.79,24.67,16.24,40.26,51.3,52.59v7.8h-174v-7.8c39-14.28,62.33-21.42,53.89-50Zm-97.41-39h85.72l-21.43-69.48-23.38-85.72-23.37,93.51Z"/><path class="cls-1" d="M4304.44,6.49v7.8c36.36,13,45.45,36.36,45.45,68.18V363.64h0c0,52.59-29.87,84.41-83.77,84.41-61.69,0-85.06-39-85.06-84.41h0V82.47c0-31.82,9.09-55.2,45.45-68.18V6.49H4077.17v7.8c36.36,13,45.45,36.36,45.45,68.18V363.64h0c0,71.43,41.55,136.36,137,136.36,74.67,0,129.22-51.3,129.22-136.36V82.47c0-31.82,9.09-55.2,45.45-68.18V6.49Z"/><path class="cls-1" d="M4538.2,493.51v-7.8c45.46-16.88,58.45-39.61,58.45-74.67V91.56c0-30.52-7.15-42.86-29.23-42.86-24,0-53.89,16.24-89.61,99.35H4470L4489.5,6.49h272.73l19.48,141.56h-7.79c-29.87-83.11-65.59-99.35-89.61-99.35-21.43,0-29.22,12.34-29.22,42.86V411c0,35.06,13,57.79,58.44,74.67v7.8Z"/></svg>